<?xml version="1.0" encoding="UTF-8"?>
<svg width="552px" height="415px" viewBox="0 0 552 415" version="1.1" xmlns="http://www.w3.org/2000/svg" xmlns:xlink="http://www.w3.org/1999/xlink">
    <!-- Generator: Sketch 43.2 (39069) - http://www.bohemiancoding.com/sketch -->
    <title>Computer_Monitors</title>
    <desc>Created with Sketch.</desc>
    <defs></defs>
    <g id="Symbols" stroke="none" stroke-width="1" fill="none" fill-rule="evenodd">
        <g id="Computer_Monitors" fill-rule="nonzero">
            <g id="Group">
                <g transform="translate(200.000000, 62.000000)" fill="#1B2755">
                    <path d="M139.9,55.4 C148.1,47.2 151.6,36.4 150.5,26.4 C150.2,23.9 147.2,22.9 145.4,24.6 L127.2,42.8 L111.9,39.1 L108.2,23.8 L126.4,5.6 C128.2,3.8 127.1,0.8 124.6,0.5 C114.6,-0.6 103.8,3 95.6,11.1 C88,18.7 84.4,28.5 84.8,37.9 C85,43.5 83,48.9 79,52.9 L8.7,123.2 C3.8,128.1 2.9,136.2 7.3,141.6 C12.4,147.8 21.7,148.2 27.2,142.6 L98,72 C102,68 107.4,66 113,66.2 C122.4,66.6 132.3,63 139.9,55.4 Z" id="Shape"></path>
                    <path d="M150.1,131.2 L125.4,106.5 C123.8,104.9 121.8,104.1 119.6,103.6 C117.9,103.3 116.2,102.4 114.8,101 C113.4,99.6 112.5,97.9 112.2,96.2 C111.8,94 110.9,91.9 109.3,90.4 L108.3,89.4 C106.5,87.6 103.6,87.6 101.8,89.4 L98.3,92.9 L32.7,28.5 L36.7,24.5 L11.2,2.9 L0.9,13.2 L22.5,38.7 L26.4,34.8 L90.8,100.4 L87.3,103.9 C85.5,105.7 85.5,108.6 87.3,110.4 L88.3,111.4 C89.9,113 92,113.9 94.2,114.3 C95.9,114.6 97.6,115.5 99,116.9 C100.4,118.3 101.3,120 101.6,121.7 C102,123.9 102.9,126 104.5,127.6 L129.1,152.2 C130.9,154 133.9,154 135.7,152.2 L150.1,137.8 C151.9,136 151.9,133 150.1,131.2 Z" id="Shape"></path>
                </g>
                <g transform="translate(0.000000, 226.000000)">
                    <path d="M85.2,127.2 C85.2,130.1 82.8,132.5 79.9,132.5 L18.8,132.5 C15.9,132.5 13.5,130.1 13.5,127.2 L13.5,20.6 C13.5,17.7 15.9,15.3 18.8,15.3 L79.9,15.3 C82.8,15.3 85.2,17.7 85.2,20.6 L85.2,127.2 Z M49.3,161.1 C44,161.1 39.7,156.8 39.7,151.5 C39.7,146.2 44,141.9 49.3,141.9 C54.6,141.9 58.9,146.2 58.9,151.5 C58.9,156.8 54.6,161.1 49.3,161.1 L49.3,161.1 Z M83.4,0.8 L15.2,0.8 C6.8,0.8 0,7.6 0,16 L0,156.3 C0,164.7 6.8,171.5 15.2,171.5 L83.4,171.5 C91.8,171.5 98.6,164.7 98.6,156.3 L98.6,16 C98.6,7.6 91.8,0.8 83.4,0.8 L83.4,0.8 Z" id="Shape" fill="#3CB2CC"></path>
                    <g transform="translate(23.000000, 51.000000)" id="Shape" fill="#1B2755">
                        <path d="M48.5,19.6 C51.3,16.8 52.6,13 52.2,9.5 C52.1,8.6 51,8.3 50.4,8.9 L44,15.3 L38.6,14 L37.3,8.6 L43.7,2.2 C44.3,1.6 44,0.5 43.1,0.4 C39.6,-1.44328993e-15 35.8,1.3 33,4.1 C30.4,6.7 29.1,10.2 29.2,13.5 C29.3,15.4 28.6,17.3 27.2,18.7 L2.7,43.2 C1,44.9 0.7,47.7 2.2,49.6 C4,51.8 7.2,51.9 9.1,50 L33.8,25.3 C35.2,23.9 37.1,23.2 39,23.3 C42.4,23.5 45.9,22.2 48.5,19.6 Z"></path>
                        <path d="M52.1,46.1 L43.5,37.5 C43,37 42.2,36.6 41.5,36.5 C40.9,36.4 40.3,36.1 39.8,35.6 C39.3,35.1 39,34.5 38.9,33.9 C38.8,33.1 38.4,32.4 37.9,31.9 L37.5,31.5 C36.9,30.9 35.9,30.9 35.2,31.5 L34,32.7 L11.1,10.2 L12.5,8.8 L3.6,1.3 L0,4.9 L7.5,13.8 L8.9,12.4 L31.4,35.3 L30.2,36.5 C29.6,37.1 29.6,38.1 30.2,38.8 L30.5,39.1 C31.1,39.7 31.8,40 32.6,40.1 C33.2,40.2 33.8,40.5 34.3,41 C34.8,41.5 35.1,42.1 35.2,42.7 C35.3,43.5 35.6,44.2 36.2,44.8 L44.8,53.4 C45.4,54 46.5,54 47.1,53.4 L52.1,48.4 C52.7,47.7 52.7,46.7 52.1,46.1 Z"></path>
                    </g>
                </g>
                <g transform="translate(79.000000, 0.000000)">
                    <g id="Shape" fill="#3CB2CC">
                        <path d="M197.1,289.7 C196.8,289.7 196.4,289.8 196.1,289.8 C188.4,289.8 182.2,283.6 182.2,275.9 C182.2,268.2 188.4,262 196.1,262 C196.4,262 196.8,262 197.1,262.1 L197.1,244.3 L197.1,243 L36.1,243 L36.1,303.9 L152.4,303.9 C152.2,309.5 149,335 111,339.8 L112.2,339.8 C106.2,339.8 101.3,344.7 101.3,350.7 C101.3,356.7 106.2,361.6 112.2,361.6 L197,361.6 L197,289.7 L197.1,289.7 Z"></path>
                        <path d="M368,28.4 L368,216.4 L391.4,216.4 L391.4,28.4 C391.5,12.7 378.7,0 363,0 L29.1,0 C13.4,0 0.7,12.7 0.7,28.4 L0.7,212 L6,212 C12.8,212 19.1,214.3 24.2,218.1 L24.2,28.4 C24.2,25.7 26.4,23.4 29.2,23.4 L363,23.4 C365.8,23.4 368,25.7 368,28.4 Z"></path>
                    </g>
                    <g transform="translate(291.000000, 275.000000)" id="Shape" fill="#1B2755">
                        <path d="M89.4,35.3 C94.6,30.1 96.9,23.2 96.2,16.8 C96,15.2 94.1,14.6 93,15.7 L81.4,27.3 L71.6,24.9 L69.2,15.1 L80.8,3.5 C81.9,2.4 81.3,0.4 79.7,0.3 C73.3,-0.4 66.4,1.9 61.2,7.1 C56.4,11.9 54.1,18.2 54.3,24.2 C54.5,27.8 53.1,31.2 50.6,33.7 L5.8,78.5 C2.6,81.7 2.1,86.8 4.9,90.2 C8.1,94.2 14.1,94.4 17.6,90.9 L62.6,45.9 C65.1,43.4 68.6,42.1 72.2,42.2 C78.2,42.5 84.6,40.1 89.4,35.3 Z"></path>
                        <path d="M95.9,83.6 L80.2,67.9 C79.2,66.9 77.9,66.3 76.5,66.1 C75.4,65.9 74.3,65.3 73.4,64.4 C72.5,63.5 71.9,62.4 71.7,61.3 C71.4,59.9 70.9,58.6 69.9,57.6 L69.2,56.9 C68.1,55.8 66.2,55.8 65,56.9 L62.8,59.1 L21,18.1 L23.6,15.5 L7.3,1.8 L0.7,8.4 L14.4,24.7 L16.9,22.2 L58,64 L55.8,66.2 C54.7,67.3 54.7,69.2 55.8,70.4 L56.4,71 C57.4,72 58.8,72.6 60.2,72.8 C61.3,73 62.4,73.6 63.3,74.5 C64.2,75.4 64.8,76.5 65,77.6 C65.3,79 65.8,80.3 66.8,81.4 L82.5,97.1 C83.7,98.3 85.5,98.3 86.7,97.1 L95.9,87.9 C97.1,86.7 97.1,84.8 95.9,83.6 Z"></path>
                    </g>
                    <path d="M457.2,229.2 L224.8,229.2 C216.5,229.2 209.8,235.9 209.8,244.2 L209.8,399.9 C209.8,408.2 216.5,414.9 224.8,414.9 L457.2,414.9 C465.5,414.9 472.2,408.2 472.2,399.9 L472.2,244.2 C472.2,235.9 465.5,229.2 457.2,229.2 Z M442.5,392.6 C442.5,395.9 439.8,398.5 436.6,398.5 L231.2,398.5 C227.9,398.5 225.3,395.8 225.3,392.6 L225.3,251.5 C225.3,248.2 228,245.6 231.2,245.6 L436.6,245.6 C439.9,245.6 442.5,248.3 442.5,251.5 L442.5,392.6 Z M457,329.8 C452.7,329.8 449.2,326.3 449.2,322 C449.2,317.7 452.7,314.2 457,314.2 C461.3,314.2 464.8,317.7 464.8,322 C464.8,326.3 461.3,329.8 457,329.8 Z" id="Shape" fill="#3CB2CC"></path>
                </g>
            </g>
        </g>
    </g>
</svg>